<?xml version="1.0" encoding="utf-8"?>
<svg version="1.1" id="Layer_1" xmlns="http://www.w3.org/2000/svg" x="0px" y="0px" width="100%" viewBox="0 0 1024 768" enable-background="new 0 0 1024 768">
  <g style="" transform="matrix(0.506165, 0, 0, 0.535634, -70.428376, 159.277255)">
    <path d="M 632.279 101.052 L 321.154 101.052 C 266.708 101.052 223.928 156.005 223.928 225.946 L 223.928 475.735 C 223.928 545.676 266.708 600.629 321.154 600.629 L 632.279 600.629 C 686.726 600.629 729.505 545.676 729.505 475.735 L 729.505 225.946 C 729.505 156.005 686.726 101.052 632.279 101.052 Z" style="stroke-width: 1; fill: rgb(70, 94, 254);"/>
    <ellipse style="stroke: rgb(0, 0, 0); fill: rgb(255, 255, 255);" cx="488.244" cy="357.082" rx="157.085" ry="186.734"/>
    <path opacity="1.000000" stroke="none" d="M 616.519 570.393 C 605.439 574.201 607.089 572.216 595.859 574.024 C 590.009 574.966 578.309 553.757 574.499 558.901 C 573.359 560.436 555.899 582.385 554.159 583.308 C 536.869 592.497 503.989 587.645 484.539 584.412 C 468.889 581.81 447.959 571.07 432.069 571.482 C 422.049 571.742 377.759 569.568 367.929 567.753 C 358.969 566.096 337.509 550.667 328.549 550.246 C 315.689 549.641 332.139 556.444 319.579 553.712 C 310.339 551.704 309.689 536.865 301.479 532.87 C 288.469 526.534 301.329 522.474 288.709 515.398 C 278.259 509.535 277.489 501.276 266.029 499.944 C 250.369 498.124 266.109 521.343 258.589 507.708 C 246.209 485.253 285.869 547.922 280.189 522.872 C 278.809 516.732 277.619 520.889 273.919 515.467 C 268.349 507.286 280.839 537.518 271.789 537.115 C 262.509 536.703 264.279 526.093 256.349 520.181 C 248.579 514.397 266.249 533.559 262.839 524.389 C 255.079 503.576 243.449 513.574 247.339 492.07 C 250.609 474.033 247.689 476.803 245.979 458.316 C 244.879 446.348 237.859 442.662 239.789 430.758 C 242.379 414.765 253.419 449.247 259.219 434.168 C 262.359 426.011 252.909 405.544 261.169 408.652 C 269.819 411.907 290.883 380.128 298.903 374.464 C 302.263 372.095 299.228 336.772 300.668 332.797 C 304.628 321.928 310.069 312.808 311.699 301.409 C 312.339 296.96 297.449 290.419 300.169 286.607 C 305.689 278.87 293.849 262.751 296.099 253.629 C 298.419 244.263 294.689 229.726 298.219 220.707 C 303.109 208.212 309.259 213.711 318.479 204.217 C 324.389 198.138 316.709 198.199 322.019 191.611 C 331.079 180.372 337.539 192.522 351.769 192.037 C 355.139 191.921 386.509 165.471 389.689 164.468 C 403.319 160.174 408.839 153.814 420.529 145.595 C 426.519 141.38 438.639 145.018 444.309 141.353 C 452.579 136.006 461.549 142.023 470.579 139.326 C 480.249 136.439 474.449 129.894 484.579 131.567 C 488.849 132.272 468.229 115.306 472.509 114.282 C 481.199 112.208 475.039 135.424 483.169 139.814 C 488.619 142.755 471.749 136.943 477.919 137.765 C 482.529 138.381 524.629 146.137 529.099 147.646 C 538.659 150.879 464.309 138.866 474.059 137.958 C 481.359 137.279 485.265 142.094 492.195 143.929 C 499.715 145.919 511.959 140.169 519.419 137.782 C 528.849 134.768 489.899 136.74 499.579 139.162 C 506.029 140.775 477.907 137.076 484.307 138.896 C 490.827 140.748 470.219 135.656 448.819 120.305 C 444.719 117.364 456.109 120.822 460.359 123.564 C 481.649 137.306 501.539 94.282 517.639 114.081 C 526.929 125.503 559.069 119.907 567.489 131.872 C 575.109 142.7 609.089 173.077 607.309 185.946 C 605.829 196.606 647.429 237.33 648.479 247.968 C 649.009 253.365 640.249 275.153 642.769 279.828 C 650.869 294.857 658.739 296.689 659.289 313.205 C 659.759 327.381 654.779 339.322 656.849 353.359 C 658.219 362.702 664.549 373.313 664.669 382.789 C 664.839 395.453 655.109 413.259 656.319 425.874 C 657.239 435.502 657.179 441.014 655.789 450.559 C 655.059 455.584 674.609 456.245 675.649 461.245 C 677.219 468.846 674.809 469.108 672.769 476.693 C 670.179 486.309 649.739 482.775 647.479 492.534 C 644.499 505.405 643.509 493.097 637.399 504.613 C 629.349 519.817 696.089 485.756 685.909 499.392 C 675.199 513.733 685.109 516.819 667.539 523.573 C 657.329 527.498 656.069 522.238 647.529 529.104 C 642.589 533.079 626.759 539.421 620.679 542.305 L 616.519 570.393 Z M 590.639 369.897 C 587.149 366.797 583.819 363.506 580.149 360.632 C 567.529 350.723 553.479 342.972 539.859 334.589 C 515.729 319.737 491.259 305.41 467.379 290.169 C 449.239 278.596 446.619 258.042 460.169 241.459 C 461.089 240.337 462.429 239.412 462.149 237.65 C 460.699 235.657 458.559 236.048 456.639 236.137 C 440.259 236.904 427.869 244.489 420.729 259.151 C 413.549 273.886 414.669 288.528 424.309 302.161 C 429.539 309.563 436.979 314.398 444.489 319.078 C 480.279 341.396 517.149 361.915 552.729 384.579 C 571.569 396.574 580.359 413.084 578.319 435.442 C 575.039 471.498 539.629 497.423 504.349 489.406 C 475.489 482.851 456.639 458.709 455.499 427.766 C 454.789 408.633 445.039 394.826 427.579 387.378 C 409.889 379.828 393.219 382.813 378.859 395.698 C 364.439 408.632 361.399 425.367 364.499 443.626 C 371.599 485.453 401.399 516.767 442.909 526.085 C 449.649 527.597 456.529 528.801 463.529 527.873 C 461.799 526.532 460.019 525.645 458.229 524.781 C 419.329 506.035 401.679 473.867 399.659 431.93 C 399.319 424.748 403.439 419.877 409.289 419.704 C 414.979 419.535 418.959 423.74 419.699 430.815 C 420.259 436.105 420.229 441.417 421.149 446.71 C 429.599 495.462 475.299 531.07 524.759 526.556 C 564.979 522.885 593.469 501.731 607.969 464.394 C 621.159 430.433 617.859 397.976 590.639 369.897 Z M 441.869 378.084 C 464.919 392.158 488.219 405.841 510.929 420.432 C 528.579 431.765 530.929 452.881 517.349 468.902 C 516.429 469.983 514.899 470.771 515.259 473.124 C 521.409 475.59 527.609 473.854 533.369 471.771 C 549.079 466.084 558.619 454.759 561.069 438.149 C 563.349 422.712 557.849 409.894 545.949 400.031 C 534.739 390.74 521.989 383.697 509.439 376.459 C 480.269 359.631 451.489 342.156 423.029 324.165 C 403.919 312.09 395.549 291.85 399.929 269.854 C 405.879 239.997 430.369 219.499 460.219 219.408 C 490.009 219.318 514.719 239.648 520.739 269.599 C 522.049 276.091 521.709 282.907 522.989 289.408 C 526.969 309.758 544.689 325.377 564.279 326.297 C 587.179 327.375 605.839 314.639 612.109 293.344 C 616.279 279.21 614.229 265.124 609.659 251.598 C 596.759 213.376 569.259 191.539 530.459 183.258 C 526.249 182.36 521.519 180.865 516.959 182.787 C 517.369 184.712 518.699 184.843 519.689 185.333 C 529.289 190.116 538.239 195.876 546.199 203.088 C 568.579 223.367 576.599 249.768 578.159 278.788 C 578.509 285.412 574.069 290.248 568.349 290.533 C 562.859 290.808 558.289 286.068 558.069 279.281 C 557.849 272.597 557.199 265.989 555.709 259.484 C 544.349 210.059 497.779 177.474 447.879 183.999 C 399.489 190.323 363.089 231.576 362.639 280.913 C 362.379 308.898 374.589 330.913 396.029 348.243 C 410.099 359.61 426.129 367.961 441.869 378.084 Z" style="fill: rgb(70, 94, 254);"/>
  </g>
  <text style="fill: rgb(51, 51, 51); font-family: Tahoma; font-size: 28px; white-space: pre;" transform="matrix(7.47163, 0, 0, 7.362748, -2140.87845, -1777.569973)"><tspan style="font-weight: 700;" x="327.434" y="299.346">S</tspan><tspan>avero</tspan></text>
</svg>